<svg width="44" height="45" viewBox="0 0 44 45" fill="none" xmlns="http://www.w3.org/2000/svg">
<g clip-path="url(#clip0_4781_65534)">
<g clip-path="url(#clip1_4781_65534)">
<path d="M21.75 22.17C21.75 19.408 23.934 17.17 26.625 17.17C29.319 17.17 31.5 19.406 31.5 22.17C31.5 24.932 29.319 27.17 26.625 27.17C23.935 27.17 21.75 24.934 21.75 22.17Z" fill="#1ABCFE"/>
<path d="M12 32.17C12 29.409 14.184 27.17 16.875 27.17H21.75V32.17C21.75 34.93 19.566 37.17 16.875 37.17C14.184 37.17 12 34.93 12 32.17Z" fill="#0ACF83"/>
<path d="M21.75 7.17004V17.17H26.625C29.319 17.17 31.5 14.931 31.5 12.17C31.5 9.41004 29.319 7.17004 26.625 7.17004H21.75Z" fill="#FF7262"/>
<path d="M12 12.17C12 14.931 14.184 17.17 16.875 17.17H21.75V7.17004H16.875C14.184 7.17004 12 9.41004 12 12.17Z" fill="#F24E1E"/>
<path d="M12 22.17C12 24.932 14.184 27.17 16.875 27.17H21.75V17.17H16.875C14.184 17.17 12 19.407 12 22.17Z" fill="#A259FF"/>
</g>
</g>
<defs>
<clipPath id="clip0_4781_65534">
<rect width="44" height="44" fill="white" transform="translate(0 0.170044)"/>
</clipPath>
<clipPath id="clip1_4781_65534">
<rect width="44" height="44" fill="white" transform="translate(0 0.170044)"/>
</clipPath>
</defs>
</svg>
