<svg width="44" height="45" viewBox="0 0 44 45" fill="none" xmlns="http://www.w3.org/2000/svg">
<g clip-path="url(#clip0_4781_65553)">
<g clip-path="url(#clip1_4781_65553)">
<path fill-rule="evenodd" clip-rule="evenodd" d="M26.405 7.40792L9.805 8.63492C8.465 8.74992 8 9.62492 8 10.6749V28.8719C8 29.6889 8.29 30.3879 8.99 31.3219L12.892 36.3959C13.533 37.2129 14.116 37.3879 15.34 37.3299L34.617 36.1629C36.247 36.0469 36.714 35.2879 36.714 34.0049V13.5319C36.714 12.8689 36.452 12.6779 35.681 12.1119L30.25 8.28292C28.968 7.35092 28.444 7.23292 26.405 7.40792ZM15.775 13.1979C14.202 13.3029 13.845 13.3279 12.951 12.5999L10.678 10.7919C10.448 10.5579 10.563 10.2669 11.145 10.2079L27.103 9.04192C28.443 8.92492 29.141 9.39192 29.665 9.79992L32.402 11.7829C32.519 11.8429 32.81 12.1909 32.46 12.1909L15.98 13.1829L15.776 13.1969L15.775 13.1979ZM13.942 33.8299V16.4499C13.942 15.6909 14.175 15.3409 14.872 15.2829L33.8 14.1739C34.442 14.1159 34.732 14.5239 34.732 15.2819V32.5459C34.732 33.3049 34.615 33.9469 33.567 34.0049L15.454 35.0549C14.406 35.1129 13.941 34.7639 13.941 33.8299H13.942ZM31.822 17.3819C31.938 17.9069 31.822 18.4319 31.297 18.4919L30.424 18.6649V31.4969C29.666 31.9049 28.968 32.1379 28.384 32.1379C27.453 32.1379 27.22 31.8459 26.522 30.9719L20.812 21.9899V30.6799L22.619 31.0889C22.619 31.0889 22.619 32.1389 21.162 32.1389L17.145 32.3719C17.028 32.1379 17.145 31.5549 17.552 31.4389L18.601 31.1489V19.6589L17.145 19.5399C17.028 19.0149 17.319 18.2569 18.135 18.1979L22.445 17.9079L28.385 27.0059V18.9569L26.871 18.7829C26.754 18.1399 27.22 17.6729 27.801 17.6159L31.821 17.3819H31.822Z" fill="#E6E6E6"/>
</g>
</g>
<defs>
<clipPath id="clip0_4781_65553">
<rect width="44" height="44" fill="white" transform="translate(0 0.339966)"/>
</clipPath>
<clipPath id="clip1_4781_65553">
<rect width="44" height="44" fill="white" transform="translate(0 0.339966)"/>
</clipPath>
</defs>
</svg>
